<svg xmlns="http://www.w3.org/2000/svg"  viewBox="0 0 64 64" width="64px" height="64px"><linearGradient id="HkUW0T5P4Zokmj30244jHa" x1="32" x2="32" y1="8" y2="55.01" gradientUnits="userSpaceOnUse" spreadMethod="reflect"><stop offset="0" stop-color="#1a6dff"/><stop offset="1" stop-color="#c822ff"/></linearGradient><path fill="url(#HkUW0T5P4Zokmj30244jHa)" d="M47.7,45.8c0-0.02,0.01-0.03,0.01-0.04c0.57-1.91,1.29-4.27,1.29-7.3 c0-5.07-1.67-12.38-1.74-12.69l-0.15-0.62c1.04-1.08,2.08-2.16,3.12-3.24c0.03,0.28,0.06,0.56,0.06,0.85c0,0.68,0.55,1.24,1.22,1.24 c0.66,0,1.21-0.56,1.21-1.24c0-1.4-0.34-2.7-0.91-3.87c-0.09-0.23-0.21-0.45-0.34-0.66l2.19-3.34C53.93,14.95,54.21,15,54.5,15 c1.93,0,3.5-1.57,3.5-3.5S56.43,8,54.5,8S51,9.57,51,11.5c0,0.4,0.08,0.78,0.21,1.14l-2.63,2.67c-1.28-0.78-2.77-1.23-4.36-1.23 c-0.67,0-1.22,0.56-1.22,1.24c0,0.69,0.55,1.24,1.22,1.24c0.41,0,0.81,0.05,1.2,0.13c-0.28,0.33-0.62,0.72-1,1.16 C41.78,14.81,37.5,13,33.4,13h-2.8c-4.1,0-8.38,1.81-11.02,4.85c-0.38-0.44-0.72-0.83-1-1.16c0.39-0.08,0.79-0.13,1.2-0.13 c0.67,0,1.22-0.55,1.22-1.24c0-0.68-0.55-1.24-1.22-1.24c-1.59,0-3.08,0.45-4.36,1.23l-2.63-2.67C12.92,12.28,13,11.9,13,11.5 C13,9.57,11.43,8,9.5,8S6,9.57,6,11.5S7.57,15,9.5,15c0.29,0,0.57-0.05,0.84-0.11l2.19,3.34c-0.13,0.21-0.25,0.43-0.34,0.66 c-0.57,1.17-0.91,2.47-0.91,3.87c0,0.68,0.55,1.24,1.21,1.24c0.67,0,1.22-0.56,1.22-1.24c0-0.29,0.03-0.57,0.06-0.85 c1.09,1.13,2.19,2.28,3.28,3.42c0.13,1.8,0.64,3.52,1.6,5.12c-0.26,0.5-0.48,1.17-0.48,1.82c0,2.72,1.08,5.16,2.83,6.76v0.95 c-0.23,1.52-7.84,9.31-12.63,13.25L6.21,55H9c3.6,0,8.83-0.97,13.79-5.43c1.75,2.77,4.36,5.43,5.88,5.43h6.66 c1.77,0,4.61-3.19,6.29-6.17c1.18,2.97,3.64,4.87,3.78,4.97l1.6,1.21v-1.68c2.52,1.1,5.2,1.67,8,1.67h2.79l-2.16-1.77 C53.75,51.68,50.52,48.71,47.7,45.8z M54.5,10c0.83,0,1.5,0.67,1.5,1.5c0,0.83-0.67,1.5-1.5,1.5S53,12.33,53,11.5 C53,10.67,53.67,10,54.5,10z M9.5,13C8.67,13,8,12.33,8,11.5C8,10.67,8.67,10,9.5,10s1.5,0.67,1.5,1.5C11,12.33,10.33,13,9.5,13z M17.21,22.6c-0.92-0.96-1.83-1.91-2.73-2.85c0.51-0.93,1.25-1.72,2.14-2.27c0.42,0.5,1.02,1.19,1.77,2.04 C17.83,20.47,17.43,21.5,17.21,22.6z M47.38,17.48c0.89,0.55,1.63,1.34,2.14,2.27c-0.9,0.94-1.81,1.89-2.73,2.85 c-0.22-1.1-0.62-2.13-1.18-3.08C46.36,18.67,46.96,17.98,47.38,17.48z M30.6,15h2.8c3.81,0,8.76,2.04,10.73,5.92 C41.83,19.57,37.89,18,32,18s-9.83,1.57-12.13,2.92C21.84,17.04,26.79,15,30.6,15z M19,24.54c0-0.2,0.03-0.39,0.04-0.58 C20.08,23.01,24.03,20,32,20s11.92,3.01,12.96,3.96c0.01,0.19,0.04,0.38,0.04,0.58c0,0.49-0.04,0.98-0.12,1.46H19.12 C19.04,25.52,19,25.03,19,24.54z M11.92,52.76c2.61-2.36,6.67-6.21,9.08-9.21v1.44c0,0.76,0.3,1.73,0.79,2.76 C18.41,50.92,14.88,52.28,11.92,52.76z M41,44.99c0,2.58-4.49,7.77-5.67,8.01h-6.62C27.53,52.75,23,47.45,23,44.99v-4.64 c0.32,0.15,0.65,0.28,1,0.38v3.91c0,1.85,1.5,3.36,3.33,3.36H29v2h2v-2h2v2h2v-2h1.67C38.5,48,40,46.49,40,44.64v-3.91 c0.35-0.1,0.68-0.23,1-0.38V44.99z M38.84,38.94L38,39.08v5.56c0,0.75-0.6,1.36-1.33,1.36h-9.34C26.6,46,26,45.39,26,44.64v-5.56 l-0.84-0.14c-2.89-0.46-4.99-3.27-4.99-6.67c0-0.43,0.29-1.02,0.43-1.21l0.46-0.57l-0.41-0.6c-0.4-0.61-0.71-1.24-0.96-1.89h24.62 c-0.25,0.65-0.56,1.28-0.96,1.89l-0.41,0.6l0.46,0.57c0.2,0.25,0.43,0.67,0.43,1.21C43.83,35.67,41.73,38.48,38.84,38.94z M45.79,45.18C45.37,46.59,45,47.81,45,49v1.6c-0.96-1.16-2-2.88-2-4.87v-6.7c1.75-1.6,2.83-4.04,2.83-6.76 c0-0.65-0.16-1.27-0.46-1.84c0.21-0.37,0.39-0.74,0.57-1.12C46.42,31.9,47,35.6,47,38.46C47,41.19,46.36,43.31,45.79,45.18z M47,51.12V49c0-0.29,0.04-0.61,0.1-0.95c1.68,1.69,3.44,3.36,4.94,4.71C50.29,52.48,48.61,51.92,47,51.12z"/><linearGradient id="HkUW0T5P4Zokmj30244jHb" x1="45" x2="45" y1="29.31" y2="50.6" gradientUnits="userSpaceOnUse" spreadMethod="reflect"><stop offset="0" stop-color="#6dc7ff"/><stop offset="1" stop-color="#e6abff"/></linearGradient><path fill="url(#HkUW0T5P4Zokmj30244jHb)" d="M47,38.46c0,2.73-0.64,4.85-1.21,6.72C45.37,46.59,45,47.81,45,49v1.6 c-0.96-1.16-2-2.88-2-4.87v-6.7c1.75-1.6,2.83-4.04,2.83-6.76c0-0.65-0.16-1.27-0.46-1.84c0.21-0.37,0.39-0.74,0.57-1.12 C46.42,31.9,47,35.6,47,38.46z"/><linearGradient id="HkUW0T5P4Zokmj30244jHc" x1="32" x2="32" y1="20" y2="26" gradientUnits="userSpaceOnUse" spreadMethod="reflect"><stop offset="0" stop-color="#6dc7ff"/><stop offset="1" stop-color="#e6abff"/></linearGradient><path fill="url(#HkUW0T5P4Zokmj30244jHc)" d="M45,24.54c0,0.49-0.04,0.98-0.12,1.46H19.12C19.04,25.52,19,25.03,19,24.54 c0-0.2,0.03-0.39,0.04-0.58C20.08,23.01,24.03,20,32,20s11.92,3.01,12.96,3.96C44.97,24.15,45,24.34,45,24.54z"/><linearGradient id="HkUW0T5P4Zokmj30244jHd" x1="37" x2="37" y1="8.167" y2="54.763" gradientUnits="userSpaceOnUse" spreadMethod="reflect"><stop offset="0" stop-color="#1a6dff"/><stop offset="1" stop-color="#c822ff"/></linearGradient><path fill="url(#HkUW0T5P4Zokmj30244jHd)" d="M37.099,37h-1.073C34.414,37,33,35.508,33,33.808v-0.731c0-1.276,0.877-3.074,2.825-3.074 l0.263-0.001c1.72-0.014,3.477,0.053,4.371,0.942c0.352,0.349,0.537,0.792,0.537,1.279c0.049,1.603-0.339,2.856-1.154,3.697 C38.976,36.812,37.872,37,37.099,37z M36.298,32.001c-0.064,0-0.13,0-0.197,0.001l-0.275,0.001c-0.776,0-0.825,1.063-0.825,1.074 v0.731C35,34.5,35.612,35,36.025,35h1.073c0.387,0,0.929-0.082,1.308-0.473c0.409-0.421,0.613-1.184,0.592-2.206 C38.771,32.166,38.102,32.001,36.298,32.001z M38.996,32.253c0,0.001,0,0.002,0.001,0.003 C38.997,32.255,38.996,32.254,38.996,32.253z"/><linearGradient id="HkUW0T5P4Zokmj30244jHe" x1="32" x2="32" y1="8.167" y2="54.763" gradientUnits="userSpaceOnUse" spreadMethod="reflect"><stop offset="0" stop-color="#1a6dff"/><stop offset="1" stop-color="#c822ff"/></linearGradient><path fill="url(#HkUW0T5P4Zokmj30244jHe)" d="M33.729,43c-0.35,0-0.685-0.129-0.959-0.235c-0.256-0.099-0.547-0.211-0.771-0.211 s-0.515,0.112-0.771,0.211c-0.458,0.177-1.083,0.417-1.664,0.018C29.308,42.606,29,42.25,29,41.554C29,40.457,29.902,37,32,37 c1.969,0,3,3.384,3,4.554c0,0.695-0.308,1.052-0.565,1.229C34.202,42.943,33.963,43,33.729,43z M31.979,39.041 c-0.276,0.219-0.629,0.953-0.827,1.637c0.504-0.138,1.161-0.144,1.67-0.007C32.608,40.003,32.249,39.279,31.979,39.041z"/><linearGradient id="HkUW0T5P4Zokmj30244jHf" x1="27" x2="27" y1="8.167" y2="54.763" gradientUnits="userSpaceOnUse" spreadMethod="reflect"><stop offset="0" stop-color="#1a6dff"/><stop offset="1" stop-color="#c822ff"/></linearGradient><path fill="url(#HkUW0T5P4Zokmj30244jHf)" d="M27.976,37h-1.072c-0.774,0-1.879-0.188-2.745-1.081c-0.812-0.838-1.201-2.087-1.154-3.714 c0.005-0.481,0.19-0.917,0.537-1.263c0.895-0.889,2.648-0.962,4.369-0.941l0.265,0.001c1.948,0,2.825,1.797,2.825,3.074v0.731 C31,35.508,29.587,37,27.976,37z M25.002,32.32c-0.021,1.022,0.183,1.785,0.592,2.207c0.38,0.391,0.922,0.473,1.31,0.473h1.072 C28.388,35,29,34.5,29,33.808v-0.731c0-0.011-0.049-1.074-0.825-1.074l-0.278-0.001C25.948,32.005,25.236,32.159,25.002,32.32z"/></svg>